<?xml version="1.0" standalone="no"?>
<!DOCTYPE svg PUBLIC "-//W3C//DTD SVG 1.1//EN" "http://www.w3.org/Graphics/SVG/1.1/DTD/svg11.dtd" >
<svg xmlns="http://www.w3.org/2000/svg" xmlns:xlink="http://www.w3.org/1999/xlink" version="1.1">
<metadata>
Created by FontForge 20170731 at Thu Aug 25 22:12:23 2022
 By Aleksey,,,
</metadata>
<defs>
<font id="Floripa" horiz-adv-x="823" >
  <font-face 
    font-family="Floripa"
    font-weight="400"
    font-stretch="normal"
    units-per-em="2048"
    panose-1="0 0 0 0 0 0 0 0 0 0"
    ascent="1536"
    descent="-512"
    cap-height="1434"
    bbox="-352 -336 3932 1884"
    underline-thickness="102"
    underline-position="-409"
    unicode-range="U+0020-042F"
  />
<missing-glyph horiz-adv-x="1024" 
 />
    <glyph glyph-name=".notdef" horiz-adv-x="1024" 
 />
    <glyph glyph-name="uni0000" horiz-adv-x="0" 
 />
    <glyph glyph-name="uni0000" horiz-adv-x="0" 
 />
    <glyph glyph-name="uni000D" horiz-adv-x="512" 
 />
    <glyph glyph-name="space" unicode=" " horiz-adv-x="2457" 
 />
    <glyph glyph-name="exclam" unicode="!" horiz-adv-x="991" 
d="M528 461l-61 975h676l-62 -975h-553zM528 0v369h553v-369h-553z" />
    <glyph glyph-name="quotedbl" unicode="&#x22;" horiz-adv-x="1474" 
d="M389 788l-143 748h553l-144 -748h-266zM1065 788l-143 748h553l-144 -748h-266z" />
    <glyph glyph-name="ampersand" unicode="&#x26;" horiz-adv-x="3237" 
d="M2769 512q6 -74 -9.5 -147.5t-53.5 -139t-93 -116t-133.5 -80t-169.5 -29.5h-1694q-105 0 -190.5 39.5t-138 104t-81 147t-28.5 169t28 169t80.5 147.5t137.5 105t190 41q-26 63 -29.5 134t17.5 137.5t61 120.5t108 87t153 33h1642v-410h-1274q-27 0 -39 -25.5t-1 -51
t40 -25.5h1860v-410h-383zM842 410h1372q37 0 51.5 25.5t-0.5 51t-51 25.5h-1372q-36 0 -51 -25.5t-0.5 -51t51.5 -25.5z" />
    <glyph glyph-name="quotesingle" unicode="'" horiz-adv-x="675" 
d="M307 788l-143 748h553l-144 -748h-266z" />
    <glyph glyph-name="comma" unicode="," 
d="M406 0v369h552v-369l-200 -276h-348l200 276h-204z" />
    <glyph glyph-name="hyphen" unicode="-" horiz-adv-x="1503" 
d="M565 512v410h922v-410h-922z" />
    <glyph glyph-name="period" unicode="." 
d="M406 0v369h552v-369h-552z" />
    <glyph glyph-name="slash" unicode="/" horiz-adv-x="2859" 
d="M2165 1434h774l-1923 -1434h-774z" />
    <glyph glyph-name="zero" unicode="0" horiz-adv-x="2586" 
d="M2154 0h-1720q-105 0 -190 39.5t-137 105.5t-79.5 147t-27.5 169v512q0 88 27.5 169t79.5 147t137 105.5t190 39.5h1720q105 0 190 -39.5t137.5 -105.5t80 -147t27.5 -169v-512q0 -88 -27.5 -169t-80 -147t-137.5 -105.5t-190 -39.5zM846 410h897q128 0 179.5 42.5
t51.5 161.5v205q0 119 -52 162t-179 43h-897q-128 0 -180 -43t-52 -162v-205q0 -119 52 -161.5t180 -42.5z" />
    <glyph glyph-name="one" unicode="1" horiz-adv-x="2398" 
d="M12 0v410h942v614h-942v410h1557v-1024h835v-410h-2392z" />
    <glyph glyph-name="two" unicode="2" horiz-adv-x="2443" 
d="M0 0v461q0 88 27.5 169t79.5 147t137 105.5t190 39.5h1393q36 0 51 25.5t0.5 51t-51.5 25.5h-1745v410h1925q105 0 190 -39.5t137 -104.5t80.5 -148t28.5 -169t-28.5 -169t-80.5 -148t-137 -104.5t-190 -39.5h-1393q-28 0 -42.5 -14.5t-14.5 -36.5v-51h1880v-410h-2437z
" />
    <glyph glyph-name="three" unicode="3" horiz-adv-x="2279" 
d="M0 0v410h1694q37 0 51.5 25.5t-0.5 51t-51 25.5l-1305 -8v418h1253q37 0 51.5 25.5t-0.5 51t-51 25.5h-1540v410h1780q96 0 170 -43t112.5 -109t50.5 -147.5t-6 -158t-68.5 -141t-125.5 -94.5v-34q91 -22 154 -83.5t89 -139.5t19 -164t-44.5 -157t-113 -117t-175.5 -46
h-1944z" />
    <glyph glyph-name="four" unicode="4" horiz-adv-x="2539" 
d="M1925 512h-1491q-105 0 -190 39.5t-137 105.5t-79.5 147t-27.5 169v461h614v-512h1311v512h615v-1434h-615v512z" />
    <glyph glyph-name="five" unicode="5" horiz-adv-x="2451" 
d="M0 0v410h1827q37 0 51.5 25.5t-0.5 51t-51 25.5h-1827v922h2335v-410h-1925v-102h1597q105 0 190 -39.5t137 -104.5t80.5 -148t28.5 -169t-28.5 -169t-80.5 -148t-137 -104.5t-190 -39.5h-2007z" />
    <glyph glyph-name="six" unicode="6" horiz-adv-x="2588" 
d="M0 461v512q0 88 27.5 169t79.5 147t137 105.5t190 39.5h2048v-410h-1925v-102h1597q105 0 190 -39.5t137 -104.5t80.5 -148t28.5 -169t-28.5 -169t-80.5 -148t-137 -104.5t-190 -39.5h-1720q-105 0 -190 39.5t-137 105.5t-79.5 147t-27.5 169zM1974 512h-1417v-102h1417
q37 0 51.5 25.5t-0.5 51t-51 25.5z" />
    <glyph glyph-name="seven" unicode="7" horiz-adv-x="2461" 
d="M2386 1112l-1487 -1112h-774l1292 963h-1409v471h2284q76 0 124 -48t48 -124q0 -46 -14.5 -79t-63.5 -71z" />
    <glyph glyph-name="eight" unicode="8" horiz-adv-x="2674" 
d="M219 0q-76 0 -138.5 26.5t-102.5 71t-64.5 102.5t-29 120t10 124t46 114.5t85 92.5t121.5 56v34q-75 30 -125 94.5t-68 141t-6 158t50.5 147.5t112.5 109t170 43h1882q96 0 170 -43t112.5 -109t50.5 -147.5t-6 -158t-68.5 -141t-125.5 -94.5v-34q68 -16 121.5 -56
t85 -92.5t46 -114.5t10 -124t-29 -120t-64.5 -102.5t-102.5 -71t-138.5 -26.5h-2005zM526 1024q-36 0 -51 -25.5t-0.5 -51t51.5 -25.5h1397q37 0 51.5 25.5t-0.5 51t-51 25.5h-1397zM526 512q-36 0 -51 -25.5t-0.5 -51t51.5 -25.5h1448q37 0 51.5 25.5t-0.5 51t-51 25.5
h-1448z" />
    <glyph glyph-name="nine" unicode="9" horiz-adv-x="2596" 
d="M2462 973v-512q0 -88 -27.5 -169t-79.5 -147t-137 -105.5t-190 -39.5h-2048v410h1925v102h-1598q-105 0 -190 39.5t-137 104.5t-80.5 148t-28.5 169t28.5 169t80.5 148t137 104.5t190 39.5h1721q105 0 190 -39.5t137 -105.5t79.5 -147t27.5 -169zM487 922h1418v102h-1418
q-37 0 -51.5 -25.5t0.5 -51t51 -25.5z" />
    <glyph glyph-name="colon" unicode=":" 
d="M406 0v369h552v-369h-552zM406 471v369h552v-369h-552z" />
    <glyph glyph-name="semicolon" unicode=";" 
d="M406 0v369h552v-369l-200 -276h-348l200 276h-204zM406 471v369h552v-369h-552z" />
    <glyph glyph-name="question" unicode="?" horiz-adv-x="2439" 
d="M758 430v31q0 88 27.5 169t79.5 147t137 105.5t190 39.5h717q36 0 51 25.5t0.5 51t-51.5 25.5h-1745v410h1925q105 0 190 -39.5t137 -104.5t80.5 -148t28.5 -169t-28.5 -169t-80.5 -148t-137 -104.5t-190 -39.5h-717q-28 0 -42.5 -14.5t-14.5 -36.5v-31h-557zM758 0v340
h557v-340h-557z" />
    <glyph glyph-name="A" unicode="A" horiz-adv-x="3080" 
d="M2374 0l-295 512h-1075l-297 -512h-707l825 1434h1430l825 -1434h-706zM1239 922h602l-59 102h-484z" />
    <glyph glyph-name="A" unicode="a" horiz-adv-x="3080" 
d="M2374 0l-295 512h-1075l-297 -512h-707l825 1434h1430l825 -1434h-706zM1239 922h602l-59 102h-484z" />
    <glyph glyph-name="B" unicode="B" horiz-adv-x="2648" 
d="M0 0v1434h2251q96 0 170 -43t112.5 -109t50.5 -147.5t-6 -158t-68.5 -141t-125.5 -94.5v-34q68 -16 121.5 -56t85 -92.5t46 -114.5t10 -124t-29 -120t-64.5 -102.5t-102.5 -71t-138.5 -26.5h-2312zM2011 922q37 0 51.5 25.5t-0.5 51t-51 25.5h-1397v-102h1397zM2062 512
h-1448v-102h1448q37 0 51.5 25.5t-0.5 51t-51 25.5z" />
    <glyph glyph-name="B" unicode="b" horiz-adv-x="2648" 
d="M0 0v1434h2251q96 0 170 -43t112.5 -109t50.5 -147.5t-6 -158t-68.5 -141t-125.5 -94.5v-34q68 -16 121.5 -56t85 -92.5t46 -114.5t10 -124t-29 -120t-64.5 -102.5t-102.5 -71t-138.5 -26.5h-2312zM2011 922q37 0 51.5 25.5t-0.5 51t-51 25.5h-1397v-102h1397zM2062 512
h-1448v-102h1448q37 0 51.5 25.5t-0.5 51t-51 25.5z" />
    <glyph glyph-name="C" unicode="C" horiz-adv-x="2496" 
d="M727 717q0 -83 36.5 -147t99 -105t152 -67t188 -37t214.5 -11q285 0 604.5 56t475.5 110v-399q-155 -79 -450 -131t-620 -52q-151 0 -293 12t-284 40t-264.5 69.5t-229.5 105t-184 142.5t-122.5 184.5t-49.5 229.5q4 124 50 229.5t122.5 184.5t183.5 142t229.5 105
t264.5 69.5t284 39.5t293 12q325 0 620 -51.5t450 -130.5v-399q-155 53 -474.5 109t-605.5 56q-147 0 -265.5 -18t-217 -58.5t-153 -114t-54.5 -175.5z" />
    <glyph glyph-name="C" unicode="c" horiz-adv-x="2496" 
d="M727 717q0 -83 36.5 -147t99 -105t152 -67t188 -37t214.5 -11q285 0 604.5 56t475.5 110v-399q-155 -79 -450 -131t-620 -52q-151 0 -293 12t-284 40t-264.5 69.5t-229.5 105t-184 142.5t-122.5 184.5t-49.5 229.5q4 124 50 229.5t122.5 184.5t183.5 142t229.5 105
t264.5 69.5t284 39.5t293 12q325 0 620 -51.5t450 -130.5v-399q-155 53 -474.5 109t-605.5 56q-147 0 -265.5 -18t-217 -58.5t-153 -114t-54.5 -175.5z" />
    <glyph glyph-name="D" unicode="D" horiz-adv-x="2697" 
d="M1556 0h-1552v1434h1552q183 0 352 -30t313.5 -90t251.5 -145t167 -201t59 -251q1 -134 -60 -250t-168.5 -200.5t-251.5 -145.5t-313 -91t-350 -30zM1661 1024h-1043v-614h1043q89 0 158 30.5t113 101t44 173.5t-44.5 174.5t-114 103t-156.5 31.5z" />
    <glyph glyph-name="D" unicode="d" horiz-adv-x="2697" 
d="M1556 0h-1552v1434h1552q183 0 352 -30t313.5 -90t251.5 -145t167 -201t59 -251q1 -134 -60 -250t-168.5 -200.5t-251.5 -145.5t-313 -91t-350 -30zM1661 1024h-1043v-614h1043q89 0 158 30.5t113 101t44 173.5t-44.5 174.5t-114 103t-156.5 31.5z" />
    <glyph glyph-name="E" unicode="E" horiz-adv-x="2416" 
d="M614 512v-102h1803v-410h-2417v1434h2314v-410h-1700v-102h1414v-410h-1414z" />
    <glyph glyph-name="E" unicode="e" horiz-adv-x="2416" 
d="M614 512v-102h1803v-410h-2417v1434h2314v-410h-1700v-102h1414v-410h-1414z" />
    <glyph glyph-name="F" unicode="F" horiz-adv-x="2375" 
d="M614 1024v-102h1475v-410h-1475v-512h-614v1434h2376v-410h-1762z" />
    <glyph glyph-name="F" unicode="f" horiz-adv-x="2375" 
d="M614 1024v-102h1475v-410h-1475v-512h-614v1434h2376v-410h-1762z" />
    <glyph glyph-name="G" unicode="G" horiz-adv-x="2496" 
d="M0 717q4 124 50 229.5t122.5 184.5t183.5 142t229.5 105t264.5 69.5t284 39.5t293 12q325 0 620 -51.5t450 -130.5v-399q-155 53 -474.5 109t-605.5 56q-147 0 -265.5 -18t-217 -58.5t-153 -114t-54.5 -175.5q-1 -92 59.5 -164.5t162 -115.5t221 -65t247.5 -24
q234 -3 431 23t239 59v41h-799v410h1209v-764q-155 -79 -509 -133.5t-681 -49.5q-140 2 -271.5 15.5t-262 42t-242 71t-209 105.5t-167 141.5t-110.5 182.5t-45 225z" />
    <glyph glyph-name="G" unicode="g" horiz-adv-x="2496" 
d="M0 717q4 124 50 229.5t122.5 184.5t183.5 142t229.5 105t264.5 69.5t284 39.5t293 12q325 0 620 -51.5t450 -130.5v-399q-155 53 -474.5 109t-605.5 56q-147 0 -265.5 -18t-217 -58.5t-153 -114t-54.5 -175.5q-1 -92 59.5 -164.5t162 -115.5t221 -65t247.5 -24
q234 -3 431 23t239 59v41h-799v410h1209v-764q-155 -79 -509 -133.5t-681 -49.5q-140 2 -271.5 15.5t-262 42t-242 71t-209 105.5t-167 141.5t-110.5 182.5t-45 225z" />
    <glyph glyph-name="H" unicode="H" horiz-adv-x="2643" 
d="M2028 0v512h-1414v-512h-614v1434h614v-512h1414v512h614v-1434h-614z" />
    <glyph glyph-name="H" unicode="h" horiz-adv-x="2643" 
d="M2028 0v512h-1414v-512h-614v1434h614v-512h1414v512h614v-1434h-614z" />
    <glyph glyph-name="I" unicode="I" horiz-adv-x="614" 
d="M0 0v1434h614v-1434h-614z" />
    <glyph glyph-name="I" unicode="i" horiz-adv-x="614" 
d="M0 0v1434h614v-1434h-614z" />
    <glyph glyph-name="J" unicode="J" horiz-adv-x="1966" 
d="M1966 1434v-588q0 -170 -49.5 -309t-141 -240.5t-224.5 -174t-299 -112t-364.5 -52t-420 3t-467.5 56.5v512q181 -32 329 -50.5t290.5 -23.5t251.5 8.5t201.5 48t152.5 92t93.5 143.5t33.5 200v76h-764v410h1378z" />
    <glyph glyph-name="J" unicode="j" horiz-adv-x="1966" 
d="M1966 1434v-588q0 -170 -49.5 -309t-141 -240.5t-224.5 -174t-299 -112t-364.5 -52t-420 3t-467.5 56.5v512q181 -32 329 -50.5t290.5 -23.5t251.5 8.5t201.5 48t152.5 92t93.5 143.5t33.5 200v76h-764v410h1378z" />
    <glyph glyph-name="K" unicode="K" horiz-adv-x="2682" 
d="M614 0h-614v1434h614v-623l836 623h844l-768 -572l1157 -862h-844l-735 547l-490 -365v-182z" />
    <glyph glyph-name="K" unicode="k" horiz-adv-x="2682" 
d="M614 0h-614v1434h614v-623l836 623h844l-768 -572l1157 -862h-844l-735 547l-490 -365v-182z" />
    <glyph glyph-name="L" unicode="L" horiz-adv-x="2314" 
d="M0 0v1434h614v-1024h1700v-410h-2314z" />
    <glyph glyph-name="L" unicode="l" horiz-adv-x="2314" 
d="M0 0v1434h614v-1024h1700v-410h-2314z" />
    <glyph glyph-name="M" unicode="M" horiz-adv-x="3706" 
d="M1438 1432l415 -594l416 594l610 2l828 -1434h-709l-491 852l-654 -932l-653 932l-491 -852h-709l827 1434z" />
    <glyph glyph-name="M" unicode="m" horiz-adv-x="3706" 
d="M1438 1432l415 -594l416 594l610 2l828 -1434h-709l-491 852l-654 -932l-653 932l-491 -852h-709l827 1434z" />
    <glyph glyph-name="N" unicode="N" horiz-adv-x="2754" 
d="M1618 1434q316 0 532 -62t350.5 -197.5t193.5 -336t59 -490.5v-348h-615v348q0 197 -44 327.5t-141.5 208t-236 109t-344.5 31.5h-762v-1024h-614v1434h1622z" />
    <glyph glyph-name="N" unicode="n" horiz-adv-x="2754" 
d="M1618 1434q316 0 532 -62t350.5 -197.5t193.5 -336t59 -490.5v-348h-615v348q0 197 -44 327.5t-141.5 208t-236 109t-344.5 31.5h-762v-1024h-614v1434h1622z" />
    <glyph glyph-name="O" unicode="O" horiz-adv-x="2785" 
d="M1386 -61q-153 -2 -312 18.5t-315.5 60.5t-293.5 106t-241.5 150t-165 198.5t-60.5 244.5q-1 131 59 246t164.5 199t241.5 150t293.5 106t316 59.5t313.5 17.5q132 2 268.5 -11.5t273.5 -44.5t262 -76t233 -110t187.5 -143t124.5 -179t44 -214q0 -112 -45 -212.5
t-125 -178.5t-188 -143t-233 -110t-262 -76t-273 -45t-267 -13zM725 717q0 -119 91.5 -202.5t238 -122t331.5 -38.5t332.5 38.5t240.5 122t93 202.5q0 90 -53 160t-145.5 113.5t-211 66t-256.5 22.5q-185 0 -331.5 -38t-238 -121.5t-91.5 -202.5z" />
    <glyph glyph-name="O" unicode="o" horiz-adv-x="2785" 
d="M1386 -61q-153 -2 -312 18.5t-315.5 60.5t-293.5 106t-241.5 150t-165 198.5t-60.5 244.5q-1 131 59 246t164.5 199t241.5 150t293.5 106t316 59.5t313.5 17.5q132 2 268.5 -11.5t273.5 -44.5t262 -76t233 -110t187.5 -143t124.5 -179t44 -214q0 -112 -45 -212.5
t-125 -178.5t-188 -143t-233 -110t-262 -76t-273 -45t-267 -13zM725 717q0 -119 91.5 -202.5t238 -122t331.5 -38.5t332.5 38.5t240.5 122t93 202.5q0 90 -53 160t-145.5 113.5t-211 66t-256.5 22.5q-185 0 -331.5 -38t-238 -121.5t-91.5 -202.5z" />
    <glyph glyph-name="P" unicode="P" horiz-adv-x="2650" 
d="M2138 512h-1524v-512h-614v1434h2138q123 0 223 -39.5t161.5 -104.5t94.5 -148t33 -169t-33 -169t-94.5 -148t-161.5 -104.5t-223 -39.5zM614 922h1440q23 0 36 16t12.5 35t-13.5 35t-35 16h-1440v-102z" />
    <glyph glyph-name="P" unicode="p" horiz-adv-x="2650" 
d="M2138 512h-1524v-512h-614v1434h2138q123 0 223 -39.5t161.5 -104.5t94.5 -148t33 -169t-33 -169t-94.5 -148t-161.5 -104.5t-223 -39.5zM614 922h1440q23 0 36 16t12.5 35t-13.5 35t-35 16h-1440v-102z" />
    <glyph glyph-name="Q" unicode="Q" horiz-adv-x="2916" 
d="M729 717q0 -119 92 -202.5t238.5 -122t331.5 -38.5h49l-459 342h848l178 -133q49 71 49 154q0 90 -53 160t-145 113.5t-210.5 66t-256.5 22.5q-185 0 -331.5 -38t-238.5 -121.5t-92 -202.5zM2685 410h-471l702 -525h-843l-148 109q-251 -55 -534 -55q-131 0 -266.5 14.5
t-272 45t-261 75.5t-232.5 109.5t-187 141.5t-124.5 178t-45.5 214q0 131 60.5 245.5t165.5 198t241 149t293 105t315.5 60t313.5 20.5q132 0 268 -14.5t273 -45t261.5 -75.5t232.5 -109.5t187 -141.5t124.5 -178t45.5 -214q0 -167 -98 -307z" />
    <glyph glyph-name="Q" unicode="q" horiz-adv-x="2916" 
d="M729 717q0 -119 92 -202.5t238.5 -122t331.5 -38.5h49l-459 342h848l178 -133q49 71 49 154q0 90 -53 160t-145 113.5t-210.5 66t-256.5 22.5q-185 0 -331.5 -38t-238.5 -121.5t-92 -202.5zM2685 410h-471l702 -525h-843l-148 109q-251 -55 -534 -55q-131 0 -266.5 14.5
t-272 45t-261 75.5t-232.5 109.5t-187 141.5t-124.5 178t-45.5 214q0 131 60.5 245.5t165.5 198t241 149t293 105t315.5 60t313.5 20.5q132 0 268 -14.5t273 -45t261.5 -75.5t232.5 -109.5t187 -141.5t124.5 -178t45.5 -214q0 -167 -98 -307z" />
    <glyph glyph-name="R" unicode="R" horiz-adv-x="2797" 
d="M1268 512h-654v-512h-614v1434h2138q123 0 223 -39.5t161.5 -104.5t94.5 -148t33 -169t-33 -169t-94.5 -148t-161.5 -104.5t-223 -39.5h-27l687 -512h-844zM614 922h1440q23 0 36 16t12.5 35t-13.5 35t-35 16h-1440v-102z" />
    <glyph glyph-name="R" unicode="r" horiz-adv-x="2797" 
d="M1268 512h-654v-512h-614v1434h2138q123 0 223 -39.5t161.5 -104.5t94.5 -148t33 -169t-33 -169t-94.5 -148t-161.5 -104.5t-223 -39.5h-27l687 -512h-844zM614 922h1440q23 0 36 16t12.5 35t-13.5 35t-35 16h-1440v-102z" />
    <glyph glyph-name="S" unicode="S" horiz-adv-x="2762" 
d="M1954 1024h-1129q-53 0 -53 -51q0 -23 14 -37t37 -14h817q257 0 458 -26t351 -80.5t230 -145t80 -213.5q0 -109 -94.5 -200.5t-254.5 -150.5t-367.5 -100t-436.5 -49t-458 2t-436 53t-367 104t-254 155t-93 206h655q0 -33 43 -50t90 -17h1196q23 0 37.5 14t14.5 37
q0 51 -54 51h-1101q-65 2 -131.5 8.5t-151 21t-159 35t-147.5 54t-125.5 75t-85 101.5t-32.5 131q0 118 92.5 216t248.5 161.5t358 107.5t425.5 53.5t447 0.5t426 -52.5t358 -105t247.5 -157t92 -208.5h-655q0 33 -43.5 51.5t-89.5 18.5z" />
    <glyph glyph-name="S" unicode="s" horiz-adv-x="2762" 
d="M1954 1024h-1129q-53 0 -53 -51q0 -23 14 -37t37 -14h817q257 0 458 -26t351 -80.5t230 -145t80 -213.5q0 -109 -94.5 -200.5t-254.5 -150.5t-367.5 -100t-436.5 -49t-458 2t-436 53t-367 104t-254 155t-93 206h655q0 -33 43 -50t90 -17h1196q23 0 37.5 14t14.5 37
q0 51 -54 51h-1101q-65 2 -131.5 8.5t-151 21t-159 35t-147.5 54t-125.5 75t-85 101.5t-32.5 131q0 118 92.5 216t248.5 161.5t358 107.5t425.5 53.5t447 0.5t426 -52.5t358 -105t247.5 -157t92 -208.5h-655q0 33 -43.5 51.5t-89.5 18.5z" />
    <glyph glyph-name="T" unicode="T" horiz-adv-x="2703" 
d="M1044 0v1024h-1044v410h2703v-410h-1044v-1024h-615z" />
    <glyph glyph-name="T" unicode="t" horiz-adv-x="2703" 
d="M1044 0v1024h-1044v410h2703v-410h-1044v-1024h-615z" />
    <glyph glyph-name="U" unicode="U" horiz-adv-x="2617" 
d="M0 696v738h614v-635q0 -110 59.5 -192.5t161 -128.5t219.5 -67.5t253 -21.5q106 0 202.5 13t187.5 43.5t157 76.5t105.5 117t39.5 160v635h614v-738q1 -156 -77.5 -285.5t-208 -216t-300.5 -146t-352.5 -85.5t-367.5 -24q-131 -1 -262 11.5t-260.5 41.5t-245.5 72
t-215 106t-171 139t-112.5 175.5t-40.5 211.5z" />
    <glyph glyph-name="U" unicode="u" horiz-adv-x="2617" 
d="M0 696v738h614v-635q0 -110 59.5 -192.5t161 -128.5t219.5 -67.5t253 -21.5q106 0 202.5 13t187.5 43.5t157 76.5t105.5 117t39.5 160v635h614v-738q1 -156 -77.5 -285.5t-208 -216t-300.5 -146t-352.5 -85.5t-367.5 -24q-131 -1 -262 11.5t-260.5 41.5t-245.5 72
t-215 106t-171 139t-112.5 175.5t-40.5 211.5z" />
    <glyph glyph-name="V" unicode="V" horiz-adv-x="2977" 
d="M1679 410l590 1024h709l-826 -1434h-1327l-825 1434h709l589 -1024h381z" />
    <glyph glyph-name="V" unicode="v" horiz-adv-x="2977" 
d="M1679 410l590 1024h709l-826 -1434h-1327l-825 1434h709l589 -1024h381z" />
    <glyph glyph-name="W" unicode="W" horiz-adv-x="3543" 
d="M1772 950l278 484h666l-592 -1024h119l591 1024h709l-827 -1434h-818l-126 219l-127 -219h-818l-827 1434h709l591 -1024h119l-592 1024h666z" />
    <glyph glyph-name="W" unicode="w" horiz-adv-x="3543" 
d="M1772 950l278 484h666l-592 -1024h119l591 1024h709l-827 -1434h-818l-126 219l-127 -219h-818l-827 1434h709l591 -1024h119l-592 1024h666z" />
    <glyph glyph-name="X" unicode="X" horiz-adv-x="3121" 
d="M1561 1051l569 383h856l-997 -672l1132 -762h-917l-674 453l-674 -453h-856l1102 741l-1028 693h917z" />
    <glyph glyph-name="X" unicode="x" horiz-adv-x="3121" 
d="M1561 1051l569 383h856l-997 -672l1132 -762h-917l-674 453l-674 -453h-856l1102 741l-1028 693h917z" />
    <glyph glyph-name="Y" unicode="Y" horiz-adv-x="2904" 
d="M2904 1434l-1145 -854v-580h-614v580l-1145 854h844l608 -453l608 453h844z" />
    <glyph glyph-name="Y" unicode="y" horiz-adv-x="2904" 
d="M2904 1434l-1145 -854v-580h-614v580l-1145 854h844l608 -453l608 453h844z" />
    <glyph glyph-name="Z" unicode="Z" horiz-adv-x="2768" 
d="M0 0l1374 1024h-1186v410h2581l-1374 -1024h1247v-410h-2642z" />
    <glyph glyph-name="Z" unicode="z" horiz-adv-x="2768" 
d="M0 0l1374 1024h-1186v410h2581l-1374 -1024h1247v-410h-2642z" />
    <glyph glyph-name="guillemotleft" unicode="&#xab;" horiz-adv-x="2584" 
d="M389 719l954 586l185 -271l-420 -317l420 -316l-185 -270zM1311 719l954 586l184 -271l-419 -317l419 -316l-184 -270z" />
    <glyph glyph-name="guillemotright" unicode="&#xbb;" horiz-adv-x="2584" 
d="M2449 719l-954 -588l-184 270l420 316l-420 317l184 271zM1528 719l-955 -588l-184 270l420 316l-420 317l184 271z" />
    <glyph glyph-name="uni0401" unicode="&#x401;" horiz-adv-x="2416" 
d="M614 512v-102h1803v-410h-2417v1434h2314v-410h-1700v-102h1414v-410h-1414zM360 1536v348h783v-348h-783zM1245 1536v348h783v-348h-783z" />
    <glyph glyph-name="uni0401" unicode="&#x451;" horiz-adv-x="2416" 
d="M614 512v-102h1803v-410h-2417v1434h2314v-410h-1700v-102h1414v-410h-1414zM360 1536v348h783v-348h-783zM1245 1536v348h783v-348h-783z" />
    <glyph glyph-name="uni0406" unicode="&#x406;" horiz-adv-x="614" 
d="M0 0v1434h614v-1434h-614z" />
    <glyph glyph-name="uni0406" unicode="&#x456;" horiz-adv-x="614" 
d="M0 0v1434h614v-1434h-614z" />
    <glyph glyph-name="Ushort-cyrl" unicode="&#x40e;" horiz-adv-x="3233" 
d="M1288 0h-858l893 666h-338l-1026 768h905l746 -555l745 555h858zM1106 1536v348h1008v-348h-1008z" />
    <glyph glyph-name="Ushort-cyrl" unicode="&#x45e;" horiz-adv-x="3233" 
d="M1288 0h-858l893 666h-338l-1026 768h905l746 -555l745 555h858zM1106 1536v348h1008v-348h-1008z" />
    <glyph glyph-name="uni0410" unicode="&#x410;" horiz-adv-x="3080" 
d="M2374 0l-295 512h-1075l-297 -512h-707l825 1434h1430l825 -1434h-706zM1239 922h602l-59 102h-484z" />
    <glyph glyph-name="uni0410" unicode="&#x430;" horiz-adv-x="3080" 
d="M2374 0l-295 512h-1075l-297 -512h-707l825 1434h1430l825 -1434h-706zM1239 922h602l-59 102h-484z" />
    <glyph glyph-name="uni0411" unicode="&#x411;" horiz-adv-x="2648" 
d="M2032 512h-1418v-102h1418q37 0 51.5 25.5t-0.5 51t-51 25.5zM2212 922q105 0 190 -39.5t137 -104.5t80.5 -148t28.5 -169t-28.5 -169t-80.5 -148t-137 -104.5t-190 -39.5h-2212v1434h2499v-410h-1885v-102h1598z" />
    <glyph glyph-name="uni0411" unicode="&#x431;" horiz-adv-x="2648" 
d="M2032 512h-1418v-102h1418q37 0 51.5 25.5t-0.5 51t-51 25.5zM2212 922q105 0 190 -39.5t137 -104.5t80.5 -148t28.5 -169t-28.5 -169t-80.5 -148t-137 -104.5t-190 -39.5h-2212v1434h2499v-410h-1885v-102h1598z" />
    <glyph glyph-name="uni0412" unicode="&#x412;" horiz-adv-x="2650" 
d="M0 0v1434h2251q96 0 170 -43t112.5 -109t50.5 -147.5t-6 -158t-68.5 -141t-125.5 -94.5v-34q68 -16 121.5 -56t85 -92.5t46 -114.5t10 -124t-29 -120t-64.5 -102.5t-102.5 -71t-138.5 -26.5h-2312zM2011 922q37 0 51.5 25.5t-0.5 51t-51 25.5h-1397v-102h1397zM2062 512
h-1448v-102h1448q37 0 51.5 25.5t-0.5 51t-51 25.5z" />
    <glyph glyph-name="uni0412" unicode="&#x432;" horiz-adv-x="2650" 
d="M0 0v1434h2251q96 0 170 -43t112.5 -109t50.5 -147.5t-6 -158t-68.5 -141t-125.5 -94.5v-34q68 -16 121.5 -56t85 -92.5t46 -114.5t10 -124t-29 -120t-64.5 -102.5t-102.5 -71t-138.5 -26.5h-2312zM2011 922q37 0 51.5 25.5t-0.5 51t-51 25.5h-1397v-102h1397zM2062 512
h-1448v-102h1448q37 0 51.5 25.5t-0.5 51t-51 25.5z" />
    <glyph glyph-name="uni0413" unicode="&#x413;" horiz-adv-x="2416" 
d="M614 0h-614v1434h2417v-410h-1803v-1024z" />
    <glyph glyph-name="uni0413" unicode="&#x433;" horiz-adv-x="2416" 
d="M614 0h-614v1434h2417v-410h-1803v-1024z" />
    <glyph glyph-name="uni0414" unicode="&#x414;" horiz-adv-x="3119" 
d="M512 -307h-512v717h31q364 3 524 107q131 85 176 270q36 143 39 462v185h1935v-1024h408v-349l6 -368h-514v307h-2093v-307zM2091 410v614h-809q0 -386 -127 -614h936z" />
    <glyph glyph-name="uni0414" unicode="&#x434;" horiz-adv-x="3119" 
d="M512 -307h-512v717h31q364 3 524 107q131 85 176 270q36 143 39 462v185h1935v-1024h408v-349l6 -368h-514v307h-2093v-307zM2091 410v614h-809q0 -386 -127 -614h936z" />
    <glyph glyph-name="uni0415" unicode="&#x415;" horiz-adv-x="2416" 
d="M614 512v-102h1803v-410h-2417v1434h2314v-410h-1700v-102h1414v-410h-1414z" />
    <glyph glyph-name="uni0415" unicode="&#x435;" horiz-adv-x="2416" 
d="M614 512v-102h1803v-410h-2417v1434h2314v-410h-1700v-102h1414v-410h-1414z" />
    <glyph glyph-name="uni0416" unicode="&#x416;" horiz-adv-x="3932" 
d="M844 0h-844l1157 862l-768 572h844l426 -318v318h614v-318l426 318h844l-768 -572l1157 -862h-844l-735 547l-80 -60v-487h-614v487l-80 60z" />
    <glyph glyph-name="uni0416" unicode="&#x436;" horiz-adv-x="3932" 
d="M844 0h-844l1157 862l-768 572h844l426 -318v318h614v-318l426 318h844l-768 -572l1157 -862h-844l-735 547l-80 -60v-487h-614v487l-80 60z" />
    <glyph glyph-name="uni0417" unicode="&#x417;" horiz-adv-x="2656" 
d="M1872 920q53 0 53 49q0 25 -14 39t-37 14h-1022q-44 0 -88.5 -22t-44.5 -56h-656q-1 125 115.5 228.5t309 168.5t431 100.5t492.5 35.5q198 0 370.5 -14.5t332.5 -49t273.5 -88t181 -136.5t67.5 -188q0 -87 -51 -158t-144 -112v-22q31 -8 65 -26.5t69.5 -50t58 -82.5
t22.5 -112q0 -102 -75 -185t-200.5 -137.5t-298 -91.5t-360 -53t-393.5 -16q-200 0 -392.5 22.5t-361.5 68t-297 108t-202 148.5t-74 185h655q0 -34 44.5 -55.5t89.5 -21.5h1103q23 0 37.5 15t14.5 38q0 49 -54 49h-878v408h858z" />
    <glyph glyph-name="uni0417" unicode="&#x437;" horiz-adv-x="2656" 
d="M1872 920q53 0 53 49q0 25 -14 39t-37 14h-1022q-44 0 -88.5 -22t-44.5 -56h-656q-1 125 115.5 228.5t309 168.5t431 100.5t492.5 35.5q198 0 370.5 -14.5t332.5 -49t273.5 -88t181 -136.5t67.5 -188q0 -87 -51 -158t-144 -112v-22q31 -8 65 -26.5t69.5 -50t58 -82.5
t22.5 -112q0 -102 -75 -185t-200.5 -137.5t-298 -91.5t-360 -53t-393.5 -16q-200 0 -392.5 22.5t-361.5 68t-297 108t-202 148.5t-74 185h655q0 -34 44.5 -55.5t89.5 -21.5h1103q23 0 37.5 15t14.5 38q0 49 -54 49h-878v408h858z" />
    <glyph glyph-name="uni0418" unicode="&#x418;" horiz-adv-x="2541" 
d="M719 0h-719v1434h614v-885l1186 885h740v-1434h-615v899z" />
    <glyph glyph-name="uni0418" unicode="&#x438;" horiz-adv-x="2541" 
d="M719 0h-719v1434h614v-885l1186 885h740v-1434h-615v899z" />
    <glyph glyph-name="uni0419" unicode="&#x419;" horiz-adv-x="2541" 
d="M719 0h-719v1434h614v-885l1186 885h740v-1434h-615v899zM768 1536v348h1008v-348h-1008z" />
    <glyph glyph-name="uni0419" unicode="&#x439;" horiz-adv-x="2541" 
d="M719 0h-719v1434h614v-885l1186 885h740v-1434h-615v899zM768 1536v348h1008v-348h-1008z" />
    <glyph glyph-name="uni041A" unicode="&#x41a;" horiz-adv-x="2682" 
d="M614 0h-614v1434h614v-623l836 623h844l-768 -572l1157 -862h-844l-735 547l-490 -365v-182z" />
    <glyph glyph-name="uni041A" unicode="&#x43a;" horiz-adv-x="2682" 
d="M614 0h-614v1434h614v-623l836 623h844l-768 -572l1157 -862h-844l-735 547l-490 -365v-182z" />
    <glyph glyph-name="uni041B" unicode="&#x41b;" horiz-adv-x="2633" 
d="M2019 0v1024h-768q0 -189 -30 -342.5t-85.5 -268.5t-138.5 -199t-186 -135.5t-231.5 -76.5t-271 -25t-308.5 23v410q374 -49 539 71q129 94 170 321q29 156 30 510v122h1895v-1434h-615z" />
    <glyph glyph-name="uni041B" unicode="&#x43b;" horiz-adv-x="2633" 
d="M2019 0v1024h-768q0 -189 -30 -342.5t-85.5 -268.5t-138.5 -199t-186 -135.5t-231.5 -76.5t-271 -25t-308.5 23v410q374 -49 539 71q129 94 170 321q29 156 30 510v122h1895v-1434h-615z" />
    <glyph glyph-name="uni041C" unicode="&#x41c;" horiz-adv-x="3706" 
d="M1438 1432l415 -594l416 594l610 2l828 -1434h-709l-491 852l-654 -932l-653 932l-491 -852h-709l827 1434z" />
    <glyph glyph-name="uni041C" unicode="&#x43c;" horiz-adv-x="3706" 
d="M1438 1432l415 -594l416 594l610 2l828 -1434h-709l-491 852l-654 -932l-653 932l-491 -852h-709l827 1434z" />
    <glyph glyph-name="uni041D" unicode="&#x41d;" horiz-adv-x="2643" 
d="M2028 0v512h-1414v-512h-614v1434h614v-512h1414v512h614v-1434h-614z" />
    <glyph glyph-name="uni041D" unicode="&#x43d;" horiz-adv-x="2643" 
d="M2028 0v512h-1414v-512h-614v1434h614v-512h1414v512h614v-1434h-614z" />
    <glyph glyph-name="uni041E" unicode="&#x41e;" horiz-adv-x="2785" 
d="M1386 -61q-153 -2 -312 18.5t-315.5 60.5t-293.5 106t-241.5 150t-165 198.5t-60.5 244.5q-1 131 59 246t164.5 199t241.5 150t293.5 106t316 59.5t313.5 17.5q132 2 268.5 -11.5t273.5 -44.5t262 -76t233 -110t187.5 -143t124.5 -179t44 -214q0 -112 -45 -212.5
t-125 -178.5t-188 -143t-233 -110t-262 -76t-273 -45t-267 -13zM725 717q0 -119 91.5 -202.5t238 -122t331.5 -38.5t332.5 38.5t240.5 122t93 202.5q0 90 -53 160t-145.5 113.5t-211 66t-256.5 22.5q-185 0 -331.5 -38t-238 -121.5t-91.5 -202.5z" />
    <glyph glyph-name="uni041E" unicode="&#x43e;" horiz-adv-x="2785" 
d="M1386 -61q-153 -2 -312 18.5t-315.5 60.5t-293.5 106t-241.5 150t-165 198.5t-60.5 244.5q-1 131 59 246t164.5 199t241.5 150t293.5 106t316 59.5t313.5 17.5q132 2 268.5 -11.5t273.5 -44.5t262 -76t233 -110t187.5 -143t124.5 -179t44 -214q0 -112 -45 -212.5
t-125 -178.5t-188 -143t-233 -110t-262 -76t-273 -45t-267 -13zM725 717q0 -119 91.5 -202.5t238 -122t331.5 -38.5t332.5 38.5t240.5 122t93 202.5q0 90 -53 160t-145.5 113.5t-211 66t-256.5 22.5q-185 0 -331.5 -38t-238 -121.5t-91.5 -202.5z" />
    <glyph glyph-name="uni041F" unicode="&#x41f;" horiz-adv-x="2641" 
d="M2028 0v1024h-1414v-1024h-614v1434h2642v-1434h-614z" />
    <glyph glyph-name="uni041F" unicode="&#x43f;" horiz-adv-x="2641" 
d="M2028 0v1024h-1414v-1024h-614v1434h2642v-1434h-614z" />
    <glyph glyph-name="uni0420" unicode="&#x420;" horiz-adv-x="2650" 
d="M2138 512h-1524v-512h-614v1434h2138q123 0 223 -39.5t161.5 -104.5t94.5 -148t33 -169t-33 -169t-94.5 -148t-161.5 -104.5t-223 -39.5zM614 922h1440q23 0 36 16t12.5 35t-13.5 35t-35 16h-1440v-102z" />
    <glyph glyph-name="uni0420" unicode="&#x440;" horiz-adv-x="2650" 
d="M2138 512h-1524v-512h-614v1434h2138q123 0 223 -39.5t161.5 -104.5t94.5 -148t33 -169t-33 -169t-94.5 -148t-161.5 -104.5t-223 -39.5zM614 922h1440q23 0 36 16t12.5 35t-13.5 35t-35 16h-1440v-102z" />
    <glyph glyph-name="uni0421" unicode="&#x421;" horiz-adv-x="2496" 
d="M727 717q0 -124 82.5 -206.5t216 -116.5t304.5 -42t344.5 9t341 45t289 57t192.5 53v-399q-76 -39 -192.5 -72.5t-259.5 -59t-306 -38t-332 -13t-337.5 19t-323 55t-289 99t-234 146.5t-159 202t-64.5 261q5 142 64.5 261t159 202t234 146.5t289 99t323 55t337.5 19
t332 -13t306 -38t259.5 -59t192.5 -72.5v-399q-71 24 -192.5 53t-289 57t-341 45t-344.5 9t-304.5 -42t-216 -116.5t-82.5 -206.5z" />
    <glyph glyph-name="uni0421" unicode="&#x441;" horiz-adv-x="2496" 
d="M727 717q0 -124 82.5 -206.5t216 -116.5t304.5 -42t344.5 9t341 45t289 57t192.5 53v-399q-76 -39 -192.5 -72.5t-259.5 -59t-306 -38t-332 -13t-337.5 19t-323 55t-289 99t-234 146.5t-159 202t-64.5 261q5 142 64.5 261t159 202t234 146.5t289 99t323 55t337.5 19
t332 -13t306 -38t259.5 -59t192.5 -72.5v-399q-71 24 -192.5 53t-289 57t-341 45t-344.5 9t-304.5 -42t-216 -116.5t-82.5 -206.5z" />
    <glyph glyph-name="uni0422" unicode="&#x422;" horiz-adv-x="2703" 
d="M1044 0v1024h-1044v410h2703v-410h-1044v-1024h-615z" />
    <glyph glyph-name="uni0422" unicode="&#x442;" horiz-adv-x="2703" 
d="M1044 0v1024h-1044v410h2703v-410h-1044v-1024h-615z" />
    <glyph glyph-name="uni0423" unicode="&#x423;" horiz-adv-x="3233" 
d="M1288 0h-858l893 666h-338l-1026 768h905l746 -555l745 555h858z" />
    <glyph glyph-name="uni0423" unicode="&#x443;" horiz-adv-x="3233" 
d="M1288 0h-858l893 666h-338l-1026 768h905l746 -555l745 555h858z" />
    <glyph glyph-name="uni0424" unicode="&#x424;" horiz-adv-x="3661" 
d="M1968 1434v-256h1012q123 0 223 -39.5t161.5 -104.5t94.5 -148t33 -169t-33 -169t-94.5 -148t-161.5 -104.5t-223 -39.5h-1012v-256h-614v256h-1012q-123 0 -223 39.5t-161.5 104.5t-94.5 148t-33 169t33 169t94.5 148t161.5 104.5t223 39.5h1012v256h614zM1354 768h-908
q-40 0 -56.5 -25.5t-0.5 -51t57 -25.5h908v102zM1968 768v-102h907q41 0 57 25.5t-0.5 51t-56.5 25.5h-907z" />
    <glyph glyph-name="uni0424" unicode="&#x444;" horiz-adv-x="3661" 
d="M1968 1434v-256h1012q123 0 223 -39.5t161.5 -104.5t94.5 -148t33 -169t-33 -169t-94.5 -148t-161.5 -104.5t-223 -39.5h-1012v-256h-614v256h-1012q-123 0 -223 39.5t-161.5 104.5t-94.5 148t-33 169t33 169t94.5 148t161.5 104.5t223 39.5h1012v256h614zM1354 768h-908
q-40 0 -56.5 -25.5t-0.5 -51t57 -25.5h908v102zM1968 768v-102h907q41 0 57 25.5t-0.5 51t-56.5 25.5h-907z" />
    <glyph glyph-name="uni0425" unicode="&#x425;" horiz-adv-x="2764" 
d="M1208 1051l570 383h856l-998 -672l1133 -762h-918l-673 453l-674 -453h-856l1102 741l-1029 693h918z" />
    <glyph glyph-name="uni0425" unicode="&#x445;" horiz-adv-x="2764" 
d="M1208 1051l570 383h856l-998 -672l1133 -762h-918l-673 453l-674 -453h-856l1102 741l-1029 693h918z" />
    <glyph glyph-name="uni0426" unicode="&#x426;" horiz-adv-x="2887" 
d="M614 410h1250v1024h614v-1022h410v-748h-512v336h-2376v1434h614v-1024z" />
    <glyph glyph-name="uni0426" unicode="&#x446;" horiz-adv-x="2887" 
d="M614 410h1250v1024h614v-1022h410v-748h-512v336h-2376v1434h614v-1024z" />
    <glyph glyph-name="uni0427" unicode="&#x427;" horiz-adv-x="2426" 
d="M1810 494q-320 -64 -578 -91.5t-445.5 -22.5t-326.5 44t-226.5 98t-140.5 149t-73 188.5t-20 225.5v349h614v-349q0 -104 63.5 -171.5t173 -94.5t263.5 -25t326 29.5t370 77.5v533h615v-1434h-615v494z" />
    <glyph glyph-name="uni0427" unicode="&#x447;" horiz-adv-x="2426" 
d="M1810 494q-320 -64 -578 -91.5t-445.5 -22.5t-326.5 44t-226.5 98t-140.5 149t-73 188.5t-20 225.5v349h614v-349q0 -104 63.5 -171.5t173 -94.5t263.5 -25t326 29.5t370 77.5v533h615v-1434h-615v494z" />
    <glyph glyph-name="uni0428" unicode="&#x428;" horiz-adv-x="3420" 
d="M3420 0h-3420v1434h614v-1024h789v1024h614v-1024h789v1024h614v-1434z" />
    <glyph glyph-name="uni0428" unicode="&#x448;" horiz-adv-x="3420" 
d="M3420 0h-3420v1434h614v-1024h789v1024h614v-1024h789v1024h614v-1434z" />
    <glyph glyph-name="uni0429" unicode="&#x429;" horiz-adv-x="3829" 
d="M3318 0h-3318v1434h614v-1024h789v1024h614v-1024h789v1024h614v-1024h410v-746h-512v336z" />
    <glyph glyph-name="uni0429" unicode="&#x449;" horiz-adv-x="3829" 
d="M3318 0h-3318v1434h614v-1024h789v1024h614v-1024h789v1024h614v-1024h410v-746h-512v336z" />
    <glyph glyph-name="uni042A" unicode="&#x42a;" horiz-adv-x="3276" 
d="M1241 1434v-512h1524q123 0 223 -39.5t161.5 -104.5t94.5 -148t33 -169t-33 -169t-94.5 -148t-161.5 -104.5t-223 -39.5h-2138v1044h-627v390h1241zM2681 512h-1440v-102h1440q22 0 35 16t13.5 35t-12.5 35t-36 16z" />
    <glyph glyph-name="uni042A" unicode="&#x44a;" horiz-adv-x="3276" 
d="M1241 1434v-512h1524q123 0 223 -39.5t161.5 -104.5t94.5 -148t33 -169t-33 -169t-94.5 -148t-161.5 -104.5t-223 -39.5h-2138v1044h-627v390h1241zM2681 512h-1440v-102h1440q22 0 35 16t13.5 35t-12.5 35t-36 16z" />
    <glyph glyph-name="uni042B" unicode="&#x42b;" horiz-adv-x="3133" 
d="M614 1434v-512h1319q123 0 223 -39.5t161.5 -104.5t94.5 -148t33 -169t-33 -169t-94.5 -148t-161.5 -104.5t-223 -39.5h-1933v1434h614zM1849 512h-1235v-102h1235q22 0 35 16t13.5 35t-12.5 35t-36 16zM2519 0v1434h614v-1434h-614z" />
    <glyph glyph-name="uni042B" unicode="&#x44b;" horiz-adv-x="3133" 
d="M614 1434v-512h1319q123 0 223 -39.5t161.5 -104.5t94.5 -148t33 -169t-33 -169t-94.5 -148t-161.5 -104.5t-223 -39.5h-1933v1434h614zM1849 512h-1235v-102h1235q22 0 35 16t13.5 35t-12.5 35t-36 16zM2519 0v1434h614v-1434h-614z" />
    <glyph glyph-name="uni042C" unicode="&#x42c;" horiz-adv-x="2650" 
d="M614 1434v-512h1524q123 0 223 -39.5t161.5 -104.5t94.5 -148t33 -169t-33 -169t-94.5 -148t-161.5 -104.5t-223 -39.5h-2138v1434h614zM2054 512h-1440v-102h1440q22 0 35 16t13.5 35t-12.5 35t-36 16z" />
    <glyph glyph-name="uni042C" unicode="&#x44c;" horiz-adv-x="2650" 
d="M614 1434v-512h1524q123 0 223 -39.5t161.5 -104.5t94.5 -148t33 -169t-33 -169t-94.5 -148t-161.5 -104.5t-223 -39.5h-2138v1434h614zM2054 512h-1440v-102h1440q22 0 35 16t13.5 35t-12.5 35t-36 16z" />
    <glyph glyph-name="uni042D" unicode="&#x42d;" horiz-adv-x="2457" 
d="M487 512v410h1299q-94 90 -288.5 129.5t-410.5 33t-443 -36t-392.5 -65t-251.5 -65.5v399q76 39 192.5 72.5t259 59t304 38t329 13t334.5 -19t319.5 -55t283.5 -99t227.5 -146.5t151.5 -202t55 -261t-55 -261t-151.5 -202t-227.5 -146.5t-283.5 -99t-319.5 -55
t-334.5 -19t-329 13t-304 38t-259 59t-192.5 72.5v399q86 -30 251.5 -65.5t392.5 -65t443 -36t410.5 33t288.5 129.5h-1299z" />
    <glyph glyph-name="uni042D" unicode="&#x44d;" horiz-adv-x="2457" 
d="M487 512v410h1299q-94 90 -288.5 129.5t-410.5 33t-443 -36t-392.5 -65t-251.5 -65.5v399q76 39 192.5 72.5t259 59t304 38t329 13t334.5 -19t319.5 -55t283.5 -99t227.5 -146.5t151.5 -202t55 -261t-55 -261t-151.5 -202t-227.5 -146.5t-283.5 -99t-319.5 -55
t-334.5 -19t-329 13t-304 38t-259 59t-192.5 72.5v399q86 -30 251.5 -65.5t392.5 -65t443 -36t410.5 33t288.5 129.5h-1299z" />
    <glyph glyph-name="uni042E" unicode="&#x42e;" horiz-adv-x="3563" 
d="M0 1434h614v-512h205q48 116 153.5 213t242.5 163t300 112t328.5 66.5t325.5 18.5q187 2 378 -25t374.5 -89.5t325.5 -152t228.5 -222t85.5 -289.5q0 -130 -60.5 -244.5t-166 -198.5t-243 -150t-294 -106t-316 -60.5t-312.5 -18.5q-204 -2 -414 33.5t-402 106t-338 188.5
t-202 265h-199v-532h-614v1434zM1507 717q0 -119 92 -202.5t238.5 -122t331.5 -38.5t332.5 38.5t240 122t92.5 202.5q0 90 -53 160t-145 113.5t-210.5 66t-256.5 22.5q-185 0 -331.5 -38t-238.5 -121.5t-92 -202.5z" />
    <glyph glyph-name="uni042E" unicode="&#x44e;" horiz-adv-x="3563" 
d="M0 1434h614v-512h205q48 116 153.5 213t242.5 163t300 112t328.5 66.5t325.5 18.5q187 2 378 -25t374.5 -89.5t325.5 -152t228.5 -222t85.5 -289.5q0 -130 -60.5 -244.5t-166 -198.5t-243 -150t-294 -106t-316 -60.5t-312.5 -18.5q-204 -2 -414 33.5t-402 106t-338 188.5
t-202 265h-199v-532h-614v1434zM1507 717q0 -119 92 -202.5t238.5 -122t331.5 -38.5t332.5 38.5t240 122t92.5 202.5q0 90 -53 160t-145 113.5t-210.5 66t-256.5 22.5q-185 0 -331.5 -38t-238.5 -121.5t-92 -202.5z" />
    <glyph glyph-name="uni042F" unicode="&#x42f;" horiz-adv-x="2797" 
d="M2161 0v512h-654l-686 -512h-844l687 512h-27q-123 0 -223 39.5t-161.5 104.5t-94.5 148t-33 169t33 169t94.5 148t161.5 104.5t223 39.5h2138v-1434h-614zM721 922h1440v102h-1440q-22 0 -35 -16t-13.5 -35t12.5 -35t36 -16z" />
    <glyph glyph-name="uni042F" unicode="&#x44f;" horiz-adv-x="2797" 
d="M2161 0v512h-654l-686 -512h-844l687 512h-27q-123 0 -223 39.5t-161.5 104.5t-94.5 148t-33 169t33 169t94.5 148t161.5 104.5t223 39.5h2138v-1434h-614zM721 922h1440v102h-1440q-22 0 -35 -16t-13.5 -35t12.5 -35t36 -16z" />
    </font>
</defs>
</svg>
